<?xml version="1.0" encoding="UTF-8" standalone="no"?>
<!-- Generator: Adobe Illustrator 18.1.1, SVG Export Plug-In . SVG Version: 6.00 Build 0)  -->

<svg
   xmlns:dc="http://purl.org/dc/elements/1.1/"
   xmlns:cc="http://creativecommons.org/ns#"
   xmlns:rdf="http://www.w3.org/1999/02/22-rdf-syntax-ns#"
   xmlns:svg="http://www.w3.org/2000/svg"
   xmlns="http://www.w3.org/2000/svg"
   xmlns:sodipodi="http://sodipodi.sourceforge.net/DTD/sodipodi-0.dtd"
   xmlns:inkscape="http://www.inkscape.org/namespaces/inkscape"
   version="1.1"
   id="Capa_1"
   x="0px"
   y="0px"
   viewBox="0 0 612 612"
   style="enable-background:new 0 0 612 612;"
   xml:space="preserve"
   sodipodi:docname="abandono.svg"
   inkscape:version="0.92.4 (unknown)"><metadata
   id="metadata47"><rdf:RDF><cc:Work
       rdf:about=""><dc:format>image/svg+xml</dc:format><dc:type
         rdf:resource="http://purl.org/dc/dcmitype/StillImage" /><dc:title></dc:title></cc:Work></rdf:RDF></metadata><defs
   id="defs45">
	

		
		
		
	</defs><sodipodi:namedview
   pagecolor="#ffffff"
   bordercolor="#666666"
   borderopacity="1"
   objecttolerance="10"
   gridtolerance="10"
   guidetolerance="10"
   inkscape:pageopacity="0"
   inkscape:pageshadow="2"
   inkscape:window-width="1317"
   inkscape:window-height="713"
   id="namedview43"
   showgrid="false"
   inkscape:zoom="0.38562092"
   inkscape:cx="306"
   inkscape:cy="306"
   inkscape:window-x="49"
   inkscape:window-y="27"
   inkscape:window-maximized="1"
   inkscape:current-layer="layer3" />
<g
   inkscape:groupmode="layer"
   id="layer1"
   inkscape:label="Layer 1"
   sodipodi:insensitive="true"><path
     d="M 269.272,310.198 C 355.449,310.193 386.456,223.907 394.573,153.029 404.572,65.715 363.282,0 269.272,0 175.274,0 133.963,65.71 143.97,153.029 c 8.125,70.878 39.123,157.175 125.302,157.169 z"
     id="path2"
     inkscape:connector-curvature="0" /><path
     d="m 457.707,346.115 c 2.773,0 5.528,0.083 8.264,0.235 -4.101,-5.85 -8.848,-11.01 -14.403,-15.158 -16.559,-12.359 -38.005,-16.414 -56.964,-23.864 -9.229,-3.625 -17.493,-7.226 -25.251,-11.326 -26.184,28.715 -60.329,43.736 -100.091,43.74 -39.749,0 -73.891,-15.021 -100.072,-43.74 -7.758,4.101 -16.024,7.701 -25.251,11.326 -18.959,7.451 -40.404,11.505 -56.964,23.864 -28.638,21.375 -36.039,69.46 -41.854,102.26 -4.799,27.076 -8.023,54.707 -8.964,82.209 -0.729,21.303 9.789,24.29 27.611,30.721 22.315,8.048 45.356,14.023 68.552,18.921 44.797,9.46 90.973,16.729 136.95,17.054 22.278,-0.159 44.601,-1.956 66.792,-4.833 -16.431,-23.807 -26.068,-52.645 -26.068,-83.695 10e-4,-81.451 66.264,-147.714 147.713,-147.714 z"
     id="path4"
     inkscape:connector-curvature="0" /></g><g
   inkscape:groupmode="layer"
   id="layer3"
   inkscape:label="Layer 3"
   style="display:inline"
   sodipodi:insensitive="true"><path
     style="display:inline"
     d="M 543.87579,412.96238 C 499.21599,365.37424 424.42903,363.0002 376.8409,407.66 c -47.58813,44.65981 -49.96287,119.44603 -5.30238,167.03489 44.66049,47.58887 119.44745,49.96291 167.03558,5.30311 47.58818,-44.66122 49.9615,-119.44749 5.30169,-167.03562 z M 478.30276,545.40136 456.79814,522.4867 433.8842,543.99063 c -8.16542,7.66296 -20.99651,7.25636 -28.65879,-0.90833 -7.66296,-8.16543 -7.25563,-20.9972 0.90979,-28.66016 l 22.91394,-21.50394 -21.50393,-22.91394 c -7.66297,-8.16542 -7.25636,-20.9965 0.90979,-28.66015 8.16543,-7.66297 20.99651,-7.25636 28.66016,0.90979 l 21.50393,22.91394 22.91394,-21.50393 c 8.16543,-7.66297 20.99719,-7.25564 28.66016,0.90979 7.66297,8.16542 7.25426,20.99573 -0.91116,28.6587 l -22.91394,21.50393 21.50462,22.91467 c 7.66296,8.16542 7.25563,20.99719 -0.90979,28.66016 -8.16757,7.6636 -20.99651,7.25636 -28.66016,-0.9098 z"
     id="path6-6"
     inkscape:connector-curvature="0" /></g>
<g
   id="g12">
</g>
<g
   id="g14">
</g>
<g
   id="g16">
</g>
<g
   id="g18">
</g>
<g
   id="g20">
</g>
<g
   id="g22">
</g>
<g
   id="g24">
</g>
<g
   id="g26">
</g>
<g
   id="g28">
</g>
<g
   id="g30">
</g>
<g
   id="g32">
</g>
<g
   id="g34">
</g>
<g
   id="g36">
</g>
<g
   id="g38">
</g>
<g
   id="g40">
</g>
</svg>