<?xml version="1.0" encoding="UTF-8" standalone="no"?>
<!-- Generator: Adobe Illustrator 16.0.0, SVG Export Plug-In . SVG Version: 6.00 Build 0)  -->

<svg
   xmlns:dc="http://purl.org/dc/elements/1.1/"
   xmlns:cc="http://creativecommons.org/ns#"
   xmlns:rdf="http://www.w3.org/1999/02/22-rdf-syntax-ns#"
   xmlns:svg="http://www.w3.org/2000/svg"
   xmlns="http://www.w3.org/2000/svg"
   xmlns:sodipodi="http://sodipodi.sourceforge.net/DTD/sodipodi-0.dtd"
   xmlns:inkscape="http://www.inkscape.org/namespaces/inkscape"
   version="1.1"
   id="Capa_1"
   x="0px"
   y="0px"
   width="516.375px"
   height="516.375px"
   viewBox="0 0 516.375 516.375"
   style="enable-background:new 0 0 516.375 516.375;"
   xml:space="preserve"
   sodipodi:docname="key.svg"
   inkscape:version="0.92.4 (unknown)"><metadata
   id="metadata41"><rdf:RDF><cc:Work
       rdf:about=""><dc:format>image/svg+xml</dc:format><dc:type
         rdf:resource="http://purl.org/dc/dcmitype/StillImage" /></cc:Work></rdf:RDF></metadata><defs
   id="defs39" /><sodipodi:namedview
   pagecolor="#ffffff"
   bordercolor="#666666"
   borderopacity="1"
   objecttolerance="10"
   gridtolerance="10"
   guidetolerance="10"
   inkscape:pageopacity="0"
   inkscape:pageshadow="2"
   inkscape:window-width="1317"
   inkscape:window-height="713"
   id="namedview37"
   showgrid="false"
   inkscape:zoom="0.4570322"
   inkscape:cx="-179.41843"
   inkscape:cy="258.1875"
   inkscape:window-x="49"
   inkscape:window-y="27"
   inkscape:window-maximized="1"
   inkscape:current-layer="g4" />
<g
   id="g4">
	<path
   d="M353.812,0C263.925,0,191.25,72.675,191.25,162.562c0,19.125,3.825,38.25,9.562,57.375L0,420.75v95.625h95.625V459H153   v-57.375h57.375l86.062-86.062c17.213,5.737,36.338,9.562,57.375,9.562c89.888,0,162.562-72.675,162.562-162.562S443.7,0,353.812,0   z M401.625,172.125c-32.513,0-57.375-24.862-57.375-57.375s24.862-57.375,57.375-57.375S459,82.237,459,114.75   S434.138,172.125,401.625,172.125z"
   id="path2"
   style="fill:#000000" />
</g>
<g
   id="g6">
</g>
<g
   id="g8">
</g>
<g
   id="g10">
</g>
<g
   id="g12">
</g>
<g
   id="g14">
</g>
<g
   id="g16">
</g>
<g
   id="g18">
</g>
<g
   id="g20">
</g>
<g
   id="g22">
</g>
<g
   id="g24">
</g>
<g
   id="g26">
</g>
<g
   id="g28">
</g>
<g
   id="g30">
</g>
<g
   id="g32">
</g>
<g
   id="g34">
</g>
</svg>