<?xml version="1.0" encoding="UTF-8" standalone="no"?>
<!-- Generator: Adobe Illustrator 16.0.0, SVG Export Plug-In . SVG Version: 6.00 Build 0)  -->

<svg
   xmlns:dc="http://purl.org/dc/elements/1.1/"
   xmlns:cc="http://creativecommons.org/ns#"
   xmlns:rdf="http://www.w3.org/1999/02/22-rdf-syntax-ns#"
   xmlns:svg="http://www.w3.org/2000/svg"
   xmlns="http://www.w3.org/2000/svg"
   xmlns:sodipodi="http://sodipodi.sourceforge.net/DTD/sodipodi-0.dtd"
   xmlns:inkscape="http://www.inkscape.org/namespaces/inkscape"
   version="1.1"
   id="Capa_1"
   x="0px"
   y="0px"
   width="47px"
   height="47.001px"
   viewBox="0 0 47 47.001"
   style="enable-background:new 0 0 47 47.001;"
   xml:space="preserve"
   sodipodi:docname="notasEditar.svg"
   inkscape:version="0.92.4 (unknown)"><metadata
   id="metadata60"><rdf:RDF><cc:Work
       rdf:about=""><dc:format>image/svg+xml</dc:format><dc:type
         rdf:resource="http://purl.org/dc/dcmitype/StillImage" /><dc:title></dc:title></cc:Work></rdf:RDF></metadata><defs
   id="defs58">
	

			
			
			
			
			
			
			
			
			
		</defs><sodipodi:namedview
   pagecolor="#ffffff"
   bordercolor="#666666"
   borderopacity="1"
   objecttolerance="10"
   gridtolerance="10"
   guidetolerance="10"
   inkscape:pageopacity="0"
   inkscape:pageshadow="2"
   inkscape:window-width="1317"
   inkscape:window-height="713"
   id="namedview56"
   showgrid="false"
   inkscape:zoom="6.4060436"
   inkscape:cx="41.341169"
   inkscape:cy="24.404038"
   inkscape:window-x="49"
   inkscape:window-y="27"
   inkscape:window-maximized="1"
   inkscape:current-layer="layer3" />
<g
   id="Layer_1_66_">
		<path
   d="M 39.524,0 H 7.478 C 6.298,0 5.342,0.957 5.342,2.137 v 42.727 c 0,1.18 0.957,2.137 2.136,2.137 h 32.046 c 1.18,0 2.136,-0.957 2.136,-2.137 V 2.137 C 41.66,0.957 40.704,0 39.524,0 Z m -2.137,4.272 v 6.409 H 9.614 V 4.272 Z M 9.614,42.729 V 14.954 H 37.387 V 42.726 H 9.614 Z"
   id="path2"
   inkscape:connector-curvature="0" />
	</g>
<g
   id="g25">
</g>
<g
   id="g27">
</g>
<g
   id="g29">
</g>
<g
   id="g31">
</g>
<g
   id="g33">
</g>
<g
   id="g35">
</g>
<g
   id="g37">
</g>
<g
   id="g39">
</g>
<g
   id="g41">
</g>
<g
   id="g43">
</g>
<g
   id="g45">
</g>
<g
   id="g47">
</g>
<g
   id="g49">
</g>
<g
   id="g51">
</g>
<g
   id="g53">
</g>
<g
   inkscape:groupmode="layer"
   id="layer3"
   inkscape:label="Layer 2"
   sodipodi:insensitive="true"
   style="display:inline"><g
     transform="matrix(0.04864585,0,0,0.04864585,10.661046,15.819995)"
     id="g222"><path
       inkscape:connector-curvature="0"
       d="M 328.883,89.125 436.473,196.714 164.133,469.054 56.604,361.465 Z M 518.113,63.177 470.132,15.196 c -18.543,-18.543 -48.653,-18.543 -67.259,0 l -45.961,45.961 107.59,107.59 53.611,-53.611 c 14.382,-14.383 14.382,-37.577 0,-51.959 z M 0.3,512.69 c -1.958,8.812 5.998,16.708 14.811,14.565 L 135.002,498.186 27.473,390.597 Z"
       id="path220" /></g></g></svg>