<?xml version="1.0" encoding="UTF-8" standalone="no"?>
<svg
   xmlns:dc="http://purl.org/dc/elements/1.1/"
   xmlns:cc="http://creativecommons.org/ns#"
   xmlns:rdf="http://www.w3.org/1999/02/22-rdf-syntax-ns#"
   xmlns:svg="http://www.w3.org/2000/svg"
   xmlns="http://www.w3.org/2000/svg"
   xmlns:sodipodi="http://sodipodi.sourceforge.net/DTD/sodipodi-0.dtd"
   xmlns:inkscape="http://www.inkscape.org/namespaces/inkscape"
   height="512pt"
   viewBox="-51 0 512 512.04659"
   width="512pt"
   version="1.1"
   id="svg28"
   sodipodi:docname="list.svg"
   inkscape:version="0.92.4 (unknown)">
  <metadata
     id="metadata34">
    <rdf:RDF>
      <cc:Work
         rdf:about="">
        <dc:format>image/svg+xml</dc:format>
        <dc:type
           rdf:resource="http://purl.org/dc/dcmitype/StillImage" />
        <dc:title></dc:title>
      </cc:Work>
    </rdf:RDF>
  </metadata>
  <defs
     id="defs32" />
  <sodipodi:namedview
     pagecolor="#ffffff"
     bordercolor="#666666"
     borderopacity="1"
     objecttolerance="10"
     gridtolerance="10"
     guidetolerance="10"
     inkscape:pageopacity="0"
     inkscape:pageshadow="2"
     inkscape:window-width="1317"
     inkscape:window-height="713"
     id="namedview30"
     showgrid="false"
     inkscape:zoom="0.34570313"
     inkscape:cx="341.33333"
     inkscape:cy="341.33333"
     inkscape:window-x="49"
     inkscape:window-y="27"
     inkscape:window-maximized="1"
     inkscape:current-layer="layer2" />
  <g
     inkscape:groupmode="layer"
     id="layer1"
     inkscape:label="Layer 1"
     sodipodi:insensitive="true"
     style="display:inline">
    <path
       d="M 51.222656,512.04687 H 358.42187 c 28.26563,-0.0273 51.17188,-22.93359 51.20313,-51.19921 V 102.44531 C 409.59375,74.179688 386.6875,51.273438 358.42187,51.246094 h -57.85546 c -4.8125,-5.40625 -11.70313,-8.511719 -18.94141,-8.53125 H 255.31641 C 251.17187,18.058594 229.82422,0 204.82422,0 179.82031,0 158.47656,18.058594 154.33203,42.714844 h -26.30859 c -7.24219,0.01953 -14.12891,3.125 -18.94531,8.53125 H 51.222656 C 22.957031,51.273438 0.0507812,74.179688 0.0234375,102.44531 v 358.40235 c 0.0273437,28.26562 22.9335935,51.17187 51.1992185,51.19921 z m 307.199214,-128 h -59.73046 c -9.42579,0 -17.06641,7.64063 -17.06641,17.06641 v 59.73438 H 59.757812 c -4.714843,0 -8.535156,-3.82032 -8.535156,-8.53516 V 110.98047 c 0,-4.71484 3.820313,-8.53516 8.535156,-8.53516 h 42.664068 c 0,14.14063 11.46484,25.60157 25.60156,25.60157 H 281.625 c 14.13672,0 25.59766,-11.46094 25.59766,-25.60157 h 42.66796 c 4.71094,0 8.53125,3.82032 8.53125,8.53516 z m -12.0664,17.06641 -47.66406,47.66797 V 401.11328 Z M 128.02344,59.78125 h 34.13281 c 4.71484,0 8.53516,-3.820312 8.53516,-8.535156 0,-18.851563 15.28125,-34.132813 34.13281,-34.132813 18.85156,0 34.13281,15.28125 34.13281,34.132813 0,4.714844 3.82031,8.535156 8.53125,8.535156 H 281.625 c 4.71094,0 8.53125,3.820312 8.53125,8.53125 v 34.13281 c 0,4.71485 -3.82031,8.53516 -8.53125,8.53516 H 128.02344 c -4.71485,0 -8.53516,-3.82031 -8.53516,-8.53516 V 68.3125 c 0,-4.710938 3.82031,-8.53125 8.53516,-8.53125 z M 17.089844,102.44531 c 0,-18.85156 15.28125,-34.13281 34.132812,-34.13281 H 102.42187 V 85.378906 H 59.757812 c -14.140624,0 -25.601562,11.460938 -25.601562,25.601564 V 452.3125 c 0,14.14062 11.460938,25.60156 25.601562,25.60156 H 283.08984 c 3.52735,-0.0117 7.01563,-0.7539 10.24219,-2.18359 0.16016,-0.0625 0.28906,-0.16406 0.44141,-0.23047 2.75,-1.25781 5.2539,-2.99219 7.39843,-5.12109 l 66.80079,-66.80079 c 2.10547,-2.13671 3.8164,-4.625 5.05859,-7.35546 0.0859,-0.17969 0.19922,-0.32422 0.26563,-0.50391 1.42578,-3.22266 2.16796,-6.71094 2.17578,-10.23828 v -274.5 c 0,-14.140626 -11.46094,-25.601564 -25.60157,-25.601564 H 307.22266 V 68.3125 h 51.19921 c 18.85157,0 34.13282,15.28125 34.13282,34.13281 v 358.40235 c 0,18.85156 -15.28125,34.13281 -34.13282,34.13281 H 51.222656 c -18.851562,0 -34.132812,-15.28125 -34.132812,-34.13281 z m 0,0"
       id="path2"
       inkscape:connector-curvature="0" />
    <path
       d="m 162.15625,93.914062 h 85.33203 c 4.71484,0 8.53516,-3.820312 8.53516,-8.535156 0,-4.710937 -3.82032,-8.53125 -8.53516,-8.53125 h -85.33203 c -4.71094,0 -8.53125,3.820313 -8.53125,8.53125 0,4.714844 3.82031,8.535156 8.53125,8.535156 z m 0,0"
       id="path4"
       inkscape:connector-curvature="0" />
  </g>
  <g
     inkscape:groupmode="layer"
     id="layer2"
     inkscape:label="Layer 2"
     style="display:inline"
     sodipodi:insensitive="true">
    <path
       d="m 145.08984,221.91406 c -4.71093,0 -8.53515,3.82031 -8.53515,8.53125 v 8.53516 H 85.355469 v -51.19922 h 25.601561 c 4.71094,0 8.53125,-3.82031 8.53125,-8.53516 0,-4.71093 -3.82031,-8.53125 -8.53125,-8.53125 H 85.355469 c -9.425781,0 -17.066407,7.64063 -17.066407,17.06641 v 51.19922 c 0,9.42578 7.640626,17.0664 17.066407,17.0664 h 51.199221 c 9.42578,0 17.07031,-7.64062 17.07031,-17.0664 v -8.53516 c 0,-4.71094 -3.82031,-8.53125 -8.53516,-8.53125 z m 0,0"
       id="path6"
       inkscape:connector-curvature="0" />
    <path
       d="M 136.55469,290.17969 H 85.355469 c -9.425781,0 -17.066407,7.64062 -17.066407,17.0664 v 51.19922 c 0,9.42578 7.640626,17.06641 17.066407,17.06641 h 51.199221 c 9.42578,0 17.07031,-7.64063 17.07031,-17.06641 v -51.19922 c 0,-9.42578 -7.64453,-17.0664 -17.07031,-17.0664 z m -51.199221,68.26562 v -51.19922 h 51.199221 v 51.19922 z m 0,0"
       id="path8"
       inkscape:connector-curvature="0" />
    <path
       d="m 179.22266,204.84766 h 42.66796 c 4.71094,0 8.53125,-3.82032 8.53125,-8.53516 0,-4.71094 -3.82031,-8.53125 -8.53125,-8.53125 h -42.66796 c -4.71094,0 -8.53125,3.82031 -8.53125,8.53125 0,4.71484 3.82031,8.53516 8.53125,8.53516 z m 0,0"
       id="path10"
       inkscape:connector-curvature="0" />
    <path
       d="m 332.82422,187.78125 h -76.80078 c -4.71485,0 -8.53516,3.82031 -8.53516,8.53125 0,4.71484 3.82031,8.53516 8.53516,8.53516 h 76.80078 c 4.71094,0 8.53125,-3.82032 8.53125,-8.53516 0,-4.71094 -3.82031,-8.53125 -8.53125,-8.53125 z m 0,0"
       id="path12"
       inkscape:connector-curvature="0" />
    <path
       d="m 179.22266,238.98047 h 85.33203 c 4.71484,0 8.53515,-3.82031 8.53515,-8.53516 0,-4.71094 -3.82031,-8.53125 -8.53515,-8.53125 h -85.33203 c -4.71094,0 -8.53125,3.82031 -8.53125,8.53125 0,4.71485 3.82031,8.53516 8.53125,8.53516 z m 0,0"
       id="path14"
       inkscape:connector-curvature="0" />
    <path
       d="m 332.82422,221.91406 h -34.13281 c -4.71485,0 -8.53516,3.82031 -8.53516,8.53125 0,4.71485 3.82031,8.53516 8.53516,8.53516 h 34.13281 c 4.71094,0 8.53125,-3.82031 8.53125,-8.53516 0,-4.71094 -3.82031,-8.53125 -8.53125,-8.53125 z m 0,0"
       id="path16"
       inkscape:connector-curvature="0" />
    <path
       d="m 179.22266,324.3125 h 42.66796 c 4.71094,0 8.53125,-3.82031 8.53125,-8.53125 0,-4.71484 -3.82031,-8.53516 -8.53125,-8.53516 h -42.66796 c -4.71094,0 -8.53125,3.82032 -8.53125,8.53516 0,4.71094 3.82031,8.53125 8.53125,8.53125 z m 0,0"
       id="path18"
       inkscape:connector-curvature="0" />
    <path
       d="m 332.82422,307.24609 h -76.80078 c -4.71485,0 -8.53516,3.82032 -8.53516,8.53516 0,4.71094 3.82031,8.53125 8.53516,8.53125 h 76.80078 c 4.71094,0 8.53125,-3.82031 8.53125,-8.53125 0,-4.71484 -3.82031,-8.53516 -8.53125,-8.53516 z m 0,0"
       id="path20"
       inkscape:connector-curvature="0" />
    <path
       d="m 264.55469,341.37891 h -85.33203 c -4.71094,0 -8.53125,3.82031 -8.53125,8.53515 0,4.71094 3.82031,8.53125 8.53125,8.53125 h 85.33203 c 4.71484,0 8.53515,-3.82031 8.53515,-8.53125 0,-4.71484 -3.82031,-8.53515 -8.53515,-8.53515 z m 0,0"
       id="path22"
       inkscape:connector-curvature="0" />
    <path
       d="m 332.82422,341.37891 h -34.13281 c -4.71485,0 -8.53516,3.82031 -8.53516,8.53515 0,4.71094 3.82031,8.53125 8.53516,8.53125 h 34.13281 c 4.71094,0 8.53125,-3.82031 8.53125,-8.53125 0,-4.71484 -3.82031,-8.53515 -8.53125,-8.53515 z m 0,0"
       id="path24"
       inkscape:connector-curvature="0" />
    <path
       d="m 155.21875,157.22266 -36.82031,51.53125 -9.94141,-9.94141 c -3.34765,-3.23438 -8.671874,-3.1875 -11.960936,0.10547 -3.292969,3.29297 -3.339844,8.61328 -0.105469,11.96094 l 17.066405,17.0664 c 1.60156,1.60156 3.76953,2.5 6.03125,2.5 h 0.70313 c 2.5,-0.20703 4.78125,-1.50781 6.23437,-3.54687 l 42.66797,-59.73438 c 1.91406,-2.47265 2.32422,-5.79297 1.06641,-8.65625 -1.25782,-2.86328 -3.98047,-4.80859 -7.09766,-5.07031 -3.11328,-0.26563 -6.125,1.19922 -7.84375,3.80859 z m 0,0"
       id="path26"
       inkscape:connector-curvature="0" />
  </g>
</svg>
